<svg width="132" height="48" viewBox="0 0 132 48" fill="none" xmlns="http://www.w3.org/2000/svg">
<path d="M86.4711 0L100.294 7.91449L86.4711 15.829V0Z" fill="#4B75E8"/>
<path d="M116.072 48.0001L119.342 39.8899L110.57 18.4473H114.659L121.178 34.844H121.399L127.916 18.4473H132.005L120.158 48.0001H116.072Z" fill="#101854"/>
<path d="M99.7658 18.4471L99.7374 14.8098L103.649 12.4861V18.4488H108.952V22.0861H103.649V33.8282C103.619 34.4678 103.828 35.0958 104.237 35.5913C104.628 36.0391 105.176 36.263 105.882 36.263H108.952V39.9003H105.487C103.771 39.9003 102.389 39.3714 101.341 38.3135C100.293 37.2557 99.7682 35.8916 99.7658 34.2214V22.0843" fill="#101854"/>
<path d="M22.0631 40.29C18.9661 40.29 16.4907 39.305 14.637 37.335C12.7833 35.3651 11.8565 32.6399 11.8565 29.1596C11.8565 25.6816 12.7667 22.9577 14.5873 20.9877C16.4078 19.0177 18.8345 18.0322 21.8675 18.031C24.9373 18.031 27.367 19.0554 29.1567 21.1041C30.9464 23.1528 31.8431 25.5036 31.8466 28.1564L31.6457 30.3867H15.9029C16.0095 32.3849 16.6211 33.9299 17.7376 35.0219C18.8541 36.1138 20.2959 36.658 22.0631 36.6545C24.2961 36.6545 25.9975 35.7776 27.1673 34.024H31.4519C30.7579 35.8615 29.5181 37.447 27.8962 38.571C26.2677 39.717 24.3234 40.29 22.0631 40.29ZM15.9029 27.1514H27.8642C27.6272 25.4248 26.9753 24.0807 25.9086 23.1193C24.8419 22.1578 23.4949 21.6741 21.8675 21.6683C20.2343 21.6683 18.8855 22.1496 17.8212 23.1122C16.7568 24.0749 16.1174 25.4213 15.9029 27.1514Z" fill="#101854"/>
<path d="M35.429 39.895V11.5464H39.3154V39.895H35.429Z" fill="#101854"/>
<path d="M53.035 40.29C49.938 40.29 47.4621 39.305 45.6072 37.335C43.7523 35.3651 42.8254 32.6399 42.8266 29.1596C42.8266 25.6816 43.7369 22.9577 45.5574 20.9877C47.3779 19.0177 49.8035 18.0322 52.8341 18.031C55.9039 18.031 58.3336 19.0554 60.1233 21.1041C61.913 23.1528 62.8102 25.5036 62.815 28.1564L62.6159 30.3902H46.8748C46.9791 32.3884 47.5901 33.9335 48.7078 35.0254C49.8254 36.1173 51.2679 36.6615 53.035 36.658C55.2656 36.658 56.9665 35.7812 58.1375 34.0275H62.4221C61.7297 35.8634 60.4933 37.4486 58.8753 38.5745C57.2397 39.7181 55.2929 40.29 53.035 40.29ZM46.8748 27.1514H58.8362C58.5991 25.4248 57.9472 24.0807 56.8805 23.1193C55.8138 22.1578 54.465 21.6765 52.8341 21.6753C51.1997 21.6753 49.8509 22.1566 48.7878 23.1193C47.7246 24.0819 47.087 25.426 46.8748 27.1514Z" fill="#101854"/>
<path d="M66.7387 39.8952V18.4473H69.809L70.4082 21.2682H70.6269C71.9555 19.1066 73.9953 18.0259 76.7462 18.0259C79.1167 18.0259 81.0338 18.8234 82.4975 20.4184C83.9613 22.0134 84.6956 24.1156 84.7003 26.7249V39.8899H80.8335V26.9471C80.8335 25.2733 80.3849 23.9751 79.4876 23.0524C78.5904 22.1298 77.4052 21.6684 75.932 21.6684C75.2271 21.6526 74.5268 21.7834 73.8761 22.0525C73.2254 22.3215 72.6388 22.7228 72.154 23.2305C71.6622 23.7174 71.2737 24.2972 71.0117 24.9356C70.7497 25.5739 70.6195 26.2579 70.6286 26.9471V39.8952H66.7387Z" fill="#101854"/>
<path d="M90.2365 39.8951V20.3248L94.1247 18.0698V39.8951H90.2365Z" fill="#101854"/>
<path d="M0.0320013 18.4471L0 14.8099L3.91127 12.4844V18.4471H9.22171V22.0844H3.91127V33.8265C3.88125 34.4661 4.09085 35.0941 4.49974 35.5896C4.89205 36.0374 5.44022 36.2613 6.14425 36.2613H9.22171V39.8986H5.75312C4.03809 39.8986 2.65611 39.3697 1.60718 38.3118C0.558245 37.254 0.0331865 35.8905 0.0320013 34.2215V22.0844" fill="#101854"/>
</svg>
